<svg xmlns="http://www.w3.org/2000/svg" width="758.272" height="622.02" viewBox="0 0 758.272 622.02"><defs><style>.a{fill:#b19793;}</style></defs><g transform="translate(0)"><path class="a" d="M0,0H223.631V88.86H0ZM0,0" transform="translate(0 0)"/><path class="a" d="M181,0H403.15V88.86H181Zm0,0" transform="translate(87.061 0)"/><path class="a" d="M361,0H584.631V88.86H361Zm0,0" transform="translate(173.641 0)"/><path class="a" d="M91,90H313.15v88.86H91Zm0,0" transform="translate(43.772 43.29)"/><path class="a" d="M271,90H493.15v88.86H271Zm0,0" transform="translate(130.351 43.29)"/><path class="a" d="M0,180H223.631v88.86H0Zm0,0" transform="translate(0 86.58)"/><path class="a" d="M181,180H403.15v88.86H181Zm0,0" transform="translate(87.061 86.58)"/><path class="a" d="M361,180H584.631v88.86H361Zm0,0" transform="translate(173.641 86.58)"/><path class="a" d="M91,270H313.15v88.86H91Zm0,0" transform="translate(43.772 129.87)"/><path class="a" d="M271,270H493.15v88.86H271Zm0,0" transform="translate(130.351 129.87)"/><path class="a" d="M0,360H223.631v88.86H0Zm0,0" transform="translate(0 173.16)"/><path class="a" d="M181,360H403.15v88.86H181Zm0,0" transform="translate(87.061 173.16)"/><path class="a" d="M361,360H584.631v88.86H361Zm0,0" transform="translate(173.641 173.16)"/></g></svg>