<svg xmlns="http://www.w3.org/2000/svg" width="2668.448" height="369.874" viewBox="0 0 2668.448 369.874"><defs><style>.a{fill:none;stroke:#fff;}</style></defs><g transform="translate(374.295 -389.089)"><path class="a" d="M2728.267,568.6S2602.8,370.759,2393.9,404s-277.91,297.546-501.22,297.546S1769.339,404,1500.661,404,1088.784,695.944,817.971,701.542,606.764,477.361,417.406,426.386s-356.87,71.256-356.87,71.256" transform="translate(-434.536 -10.63)"/><path class="a" d="M2182.792,534.172s-99.814-157.386-266-130.946-221.085,236.707-398.735,236.707S1419.937,403.226,1206.2,403.226,887.355,763.963,671.915,768.416,495.076,461.59,344.436,421.038s-283.9,56.686-283.9,56.686" transform="translate(-149.044 -10)"/></g></svg>